{
	"asset":{
		"generator":"Khronos glTF Blender I/O v3.5.30",
		"version":"2.0"
	},
	"scene":0,
	"scenes":[
		{
			"name":"Scene",
			"nodes":[
				0
			]
		}
	],
	"nodes":[
		{
			"mesh":0,
			"name":"Cylinder",
			"rotation":[
				0.13794972002506256,
				0.13794972002506256,
				-0.6935198903083801,
				0.6935199499130249
			],
			"scale":[
				0.5196807980537415,
				0.5196807980537415,
				0.5196807980537415
			]
		}
	],
	"materials":[
		{
			"doubleSided":true,
			"name":"body",
			"normalTexture":{
				"index":0
			},
			"pbrMetallicRoughness":{
				"baseColorFactor":[
					0,
					0.012815052643418312,
					0.19214105606079102,
					1
				],
				"metallicFactor":0,
				"metallicRoughnessTexture":{
					"index":1
				}
			}
		},
		{
			"doubleSided":true,
			"name":"band",
			"normalTexture":{
				"index":2
			},
			"pbrMetallicRoughness":{
				"baseColorFactor":[
					0.005501389503479004,
					0.8000000715255737,
					0,
					1
				],
				"metallicFactor":0,
				"metallicRoughnessTexture":{
					"index":3
				}
			}
		}
	],
	"meshes":[
		{
			"name":"Cylinder",
			"primitives":[
				{
					"attributes":{
						"POSITION":0,
						"TEXCOORD_0":1,
						"NORMAL":2
					},
					"indices":3,
					"material":0
				},
				{
					"attributes":{
						"POSITION":4,
						"TEXCOORD_0":5,
						"NORMAL":6
					},
					"indices":7,
					"material":1
				}
			]
		}
	],
	"textures":[
		{
			"sampler":0,
			"source":0
		},
		{
			"sampler":0,
			"source":1
		},
		{
			"sampler":0,
			"source":0
		},
		{
			"sampler":0,
			"source":1
		}
	],
	"images":[
		{
			"bufferView":4,
			"mimeType":"image/png",
			"name":"rock_01_nor_gl_1k"
		},
		{
			"bufferView":5,
			"mimeType":"image/png",
			"name":"rock_01_rough_1k"
		}
	],
	"accessors":[
		{
			"bufferView":0,
			"componentType":5126,
			"count":144,
			"max":[
				1,
				1.437850832939148,
				1
			],
			"min":[
				-1,
				-1.885465383529663,
				-1
			],
			"type":"VEC3"
		},
		{
			"bufferView":1,
			"componentType":5126,
			"count":144,
			"type":"VEC2"
		},
		{
			"bufferView":2,
			"componentType":5126,
			"count":144,
			"type":"VEC3"
		},
		{
			"bufferView":3,
			"componentType":5123,
			"count":228,
			"type":"SCALAR"
		},
		{
			"bufferView":6,
			"componentType":5126,
			"count":96,
			"max":[
				1.0576183795928955,
				0.39778071641921997,
				1.0576183795928955
			],
			"min":[
				-1.0576183795928955,
				0.10221922397613525,
				-1.0576183795928955
			],
			"type":"VEC3"
		},
		{
			"bufferView":7,
			"componentType":5126,
			"count":96,
			"type":"VEC2"
		},
		{
			"bufferView":8,
			"componentType":5126,
			"count":96,
			"type":"VEC3"
		},
		{
			"bufferView":9,
			"componentType":5123,
			"count":144,
			"type":"SCALAR"
		}
	],
	"bufferViews":[
		{
			"buffer":0,
			"byteLength":1728,
			"byteOffset":0,
			"target":34962
		},
		{
			"buffer":0,
			"byteLength":1152,
			"byteOffset":1728,
			"target":34962
		},
		{
			"buffer":0,
			"byteLength":1728,
			"byteOffset":2880,
			"target":34962
		},
		{
			"buffer":0,
			"byteLength":456,
			"byteOffset":4608,
			"target":34963
		},
		{
			"buffer":0,
			"byteLength":1913482,
			"byteOffset":5064
		},
		{
			"buffer":0,
			"byteLength":1040495,
			"byteOffset":1918548
		},
		{
			"buffer":0,
			"byteLength":1152,
			"byteOffset":2959044,
			"target":34962
		},
		{
			"buffer":0,
			"byteLength":768,
			"byteOffset":2960196,
			"target":34962
		},
		{
			"buffer":0,
			"byteLength":1152,
			"byteOffset":2960964,
			"target":34962
		},
		{
			"buffer":0,
			"byteLength":288,
			"byteOffset":2962116,
			"target":34963
		}
	],
	"samplers":[
		{
			"magFilter":9729,
			"minFilter":9987
		}
	],
	"buffers":[
		{
			"byteLength":2962404,
			"uri":"data:application/octet-stream;base64,"
		}
	]
}
